<?xml version="1.0" standalone="no"?>
<!DOCTYPE svg PUBLIC "-//W3C//DTD SVG 20010904//EN"
 "http://www.w3.org/TR/2001/REC-SVG-20010904/DTD/svg10.dtd">
<svg version="1.0" xmlns="http://www.w3.org/2000/svg"
 width="297.000000pt" height="294.000000pt" viewBox="0 0 297.000000 294.000000"
 preserveAspectRatio="xMidYMid meet">

<g transform="translate(0.000000,294.000000) scale(0.100000,-0.100000)"
fill="#000000" stroke="none">
<path d="M1200 2696 c-180 -75 -327 -175 -461 -313 -188 -192 -302 -411 -356
-680 -26 -131 -23 -376 5 -510 56 -259 167 -468 351 -656 196 -202 431 -329
708 -384 120 -23 366 -23 486 0 127 25 255 70 368 128 55 28 98 53 96 55 -2 2
-48 -7 -102 -21 -638 -162 -1294 166 -1552 778 -174 412 -118 904 145 1277 50
71 184 214 247 263 24 19 7 -4 -45 -59 -249 -266 -373 -550 -387 -894 -21
-488 226 -940 652 -1195 111 -66 215 -108 365 -148 107 -28 128 -30 300 -31
192 0 229 4 389 51 78 22 266 102 258 109 -2 2 -34 -9 -73 -25 -38 -16 -123
-42 -189 -57 -107 -25 -139 -28 -295 -27 -146 0 -192 3 -275 22 -524 120 -906
502 -1026 1026 -32 144 -32 406 0 550 30 130 62 218 124 339 64 126 141 229
252 339 49 48 85 87 79 87 -5 -1 -34 -11 -64 -24z"/>
<path d="M1336 2216 c-135 -50 -192 -197 -127 -324 40 -77 107 -116 201 -116
136 0 224 88 224 224 0 68 -16 113 -58 158 -53 59 -165 86 -240 58z"/>
<path d="M2012 834 c-69 -35 -99 -120 -67 -188 62 -131 253 -101 272 43 15
108 -108 194 -205 145z"/>
</g>
</svg>
